<?xml version="1.0" encoding="UTF-8"?>
<svg width="385px" height="189px" viewBox="0 0 385 189" version="1.1" xmlns="http://www.w3.org/2000/svg" xmlns:xlink="http://www.w3.org/1999/xlink">
    <title>a-light</title>
    <g id="Anne-Archer-Visuals" stroke="none" stroke-width="1" fill="none" fill-rule="evenodd" opacity="0.143350291">
        <g id="HOME-Desktop" transform="translate(-1015.000000, -553.000000)" fill="#B3CB0F">
            <path d="M1104.57205,670.165875 C1121.28691,655.260133 1136.7155,639.024485 1151.29318,621.917985 C1165.86427,604.818236 1175.28369,592.099749 1180,583.762524 C1171.86025,578.064858 1163.28514,575 1154.28787,575 C1134.14297,575 1114.85558,583.762524 1096.43229,600.869024 C1078.00241,618.414325 1065.57511,638.146882 1059.57253,660.080196 C1057.86411,667.965118 1057,674.547137 1057,679.812753 C1057,689.02758 1060.00788,693.408842 1066.00386,692.970041 L1066.43262,692.970041 C1075.43648,692.970041 1087.87038,685.51717 1104.57205,670.165875 M1221.10436,730.619731 C1211.23038,723.18552 1203.49775,710.498878 1198.77887,692.559803 C1195.34214,677.253679 1193.2008,662.809492 1191.90542,649.247444 C1190.61664,640.062422 1189.75746,632.183775 1188.46869,626.055938 C1187.17992,620.372537 1185.46156,617.308619 1182.45442,616.87765 C1179.88349,616.87765 1176.45337,619.941568 1171.72787,625.624969 L1171.30489,626.055938 C1169.15033,629.12659 1163.56565,636.129832 1154.55086,646.621228 C1145.52946,657.119357 1134.7963,668.499626 1121.91519,681.193002 C1108.59788,693.872911 1094.8642,705.246446 1080.69432,714.875904 C1066.52444,724.498628 1052.79076,729.306623 1040.33924,729.306623 C1031.31123,729.306623 1024.86737,726.249439 1021.01427,719.690633 C1017.14795,713.125094 1015,704.808743 1015,694.317348 C1015,688.182777 1015.42959,681.623971 1016.72497,674.620729 C1020.58468,654.944312 1027.88111,635.69213 1039.04386,616.87765 C1050.2066,598.507607 1064.38309,583.188014 1081.56011,570.939074 C1098.30092,559.127837 1117.1963,553 1138.23963,553 C1155.40343,553 1172.58706,557.814729 1189.75746,567.444187 C1196.63091,561.754053 1202.63196,559.127837 1208.22325,559.127837 C1218.09723,558.690134 1223.25231,568.319592 1224.11149,588.440446 C1224.54108,616.87765 1227.11863,642.688638 1230.98494,666.311113 C1237.85178,697.374532 1252.88085,712.687391 1275.64254,711.811986 C1293.24254,711.811986 1313.42669,705.684149 1335.74557,692.997506 C1357.64148,680.310863 1379.1144,665.442441 1400.15773,647.503367 C1420.76486,629.571026 1438.37147,612.507357 1453.40053,595.436954 C1454.2531,594.13058 1455.54848,592.810739 1457.26684,592.373036 C1458.55562,591.942067 1459.84439,591.497631 1461.13316,591.497631 C1463.2745,591.497631 1464.99287,591.942067 1466.28164,592.373036 C1467.57041,592.810739 1468,594.13058 1468,596.31236 L1468,598.06317 C1467.57041,601.120355 1465.42246,604.62871 1461.55614,608.999002 C1444.80872,627.375779 1424.62457,646.621228 1401.01691,666.755549 C1376.96644,687.314106 1352.06341,704.808743 1326.30119,719.690633 C1300.11599,734.559055 1276.93131,742 1255.88137,742 C1242.57728,742 1230.98494,738.060676 1221.10436,730.619731" id="a-light"></path>
        </g>
    </g>
</svg>