<svg width="71" height="93" viewBox="0 0 71 93" fill="none" xmlns="http://www.w3.org/2000/svg">
<path d="M34.6524 17.8761H32.0066V20.5042H34.6524V17.8761Z" fill="#EE7524"/>
<path d="M12.9886 10.7186H10.3428V27.6935H12.9886V10.7186Z" fill="#EE7524"/>
<path d="M34.6524 10.6548H32.0066V13.2829H34.6524V10.6548Z" fill="#EE7524"/>
<path d="M56.3081 13.3467V10.7186H39.2225V13.3467H51.3612H56.3081Z" fill="#EE7524"/>
<path d="M34.6524 25.0334H32.0066V27.6616H34.6524V25.0334Z" fill="#EE7524"/>
<path d="M49.0922 17.8761H39.2065V20.5042H49.0922V17.8761Z" fill="#EE7524"/>
<path d="M34.6524 32.2229H32.0066V34.851H34.6524V32.2229Z" fill="#EE7524"/>
<path d="M56.3001 25.0654H53.6543V27.6935H56.3001V25.0654Z" fill="#EE7524"/>
<path d="M56.3082 32.2229H51.3853H39.2065V34.851H56.3082V32.2229Z" fill="#EE7524"/>
<path d="M27.4445 32.2229H15.2657H10.3428V34.851H27.4445V32.2229Z" fill="#EE7524"/>
<path d="M27.4445 75.391H17.5587V78.0191H27.4445V75.391Z" fill="#EE7524"/>
<path d="M34.6524 39.4442H32.0066V42.0723H34.6524V39.4442Z" fill="#EE7524"/>
<path d="M27.4205 39.4442H24.7746V42.0723H27.4205V39.4442Z" fill="#EE7524"/>
<path d="M20.2206 39.4442H17.5747V42.0723H20.2206V39.4442Z" fill="#EE7524"/>
<path d="M12.9886 39.4442H10.3428V42.0723H12.9886V39.4442Z" fill="#EE7524"/>
<path d="M41.8523 39.4442H39.2065V42.0723H41.8523V39.4442Z" fill="#EE7524"/>
<path d="M41.8523 46.6335H39.2065V51.4904V51.5223V58.6797V58.7117V65.8691V65.9011V73.0585V73.0904V78.0192H41.8523V46.6335Z" fill="#EE7524"/>
<path d="M12.9886 46.6335H10.3428V78.0192H12.9886V46.6335Z" fill="#EE7524"/>
<path d="M49.0682 39.4442H46.4224V42.0723H49.0682V39.4442Z" fill="#EE7524"/>
<path d="M56.2841 39.4442H53.6382V42.0723H56.2841V39.4442Z" fill="#EE7524"/>
<path d="M34.6524 46.6016H32.0066V49.2297H34.6524V46.6016Z" fill="#EE7524"/>
<path d="M46.4224 49.2297H56.2841V46.6016H51.3612H51.3452H46.4224V49.2297Z" fill="#EE7524"/>
<path d="M17.5667 49.2297H27.4365V46.6016H22.5136H22.4896H17.5667V49.2297Z" fill="#EE7524"/>
<path d="M56.2841 75.3591H46.4224V77.9872H56.2841V75.3591Z" fill="#EE7524"/>
<path d="M34.6524 53.791H32.0066V56.4191H34.6524V53.791Z" fill="#EE7524"/>
<path d="M34.6524 60.9803H32.0066V63.6085H34.6524V60.9803Z" fill="#EE7524"/>
<path d="M34.6524 68.1697H32.0066V70.7978H34.6524V68.1697Z" fill="#EE7524"/>
<path d="M34.6524 75.3591H32.0066V77.9872H34.6524V75.3591Z" fill="#EE7524"/>
<path d="M51.4174 53.759H46.5186V70.8298H56.3162V67.339V62.2824V57.2259V53.759H51.4174Z" fill="#EE7524"/>
<path d="M27.3964 24.2507V19.1942V14.1377V10.6708H17.5988V27.7415H27.3964V24.2507Z" fill="#EE7524"/>
<path d="M66.6509 4.37602V0.349976H0V88.3239H4.00884V92.35H70.6598V4.37602H66.6509ZM64.9432 86.6224H1.70777V2.05146H64.9432V86.6224Z" fill="#EE7524"/>
</svg>
