<?xml version="1.0" encoding="UTF-8"?>
<svg width="22px" height="28px" viewBox="0 0 22 28" version="1.1" xmlns="http://www.w3.org/2000/svg" xmlns:xlink="http://www.w3.org/1999/xlink">
    <!-- Generator: Sketch 61.2 (89653) - https://sketch.com -->
    <title>Group 3</title>
    <desc>Created with Sketch.</desc>
    <defs>
        <polygon id="path-1" points="0.0009 -0.00024 21.771 -0.00024 21.771 27.2028942 0.0009 27.2028942"></polygon>
    </defs>
    <g id="Desktop" stroke="none" stroke-width="1" fill="none" fill-rule="evenodd">
        <g id="Contact" transform="translate(-704.000000, -1789.000000)">
            <g id="Group-3" transform="translate(704.000000, 1789.000000)">
                <mask id="mask-2" fill="white">
                    <use xlink:href="#path-1"></use>
                </mask>
                <g id="Clip-2"></g>
                <path d="M8.6319,23.05296 C9.4239,23.92896 10.1949,24.78396 10.8849,25.57296 C11.5749,24.78696 12.3489,23.92896 13.1379,23.05296 C15.1449,20.82996 17.2749,18.47196 18.7329,16.40796 C19.3029,15.59796 19.7379,14.71596 20.0319,13.78296 C20.3289,12.84996 20.4819,11.87196 20.4819,10.88496 L20.4789,10.88496 C20.4789,8.23896 19.4049,5.83896 17.6679,4.10496 C15.9339,2.36796 13.5339,1.29396 10.8849,1.29396 C8.2359,1.29396 5.8389,2.36796 4.1019,4.10496 C2.3679,5.83896 1.2939,8.23896 1.2939,10.88496 C1.2939,11.88696 1.4439,12.84996 1.7349,13.76796 C2.0259,14.69496 2.4669,15.57996 3.0429,16.41096 C4.4979,18.47496 6.6279,20.82996 8.6319,23.05296 M6.9279,6.92796 C5.9139,7.93896 5.2869,9.33996 5.2869,10.88496 L5.2899,10.88496 C5.2899,12.43296 5.9169,13.83096 6.9279,14.84496 C7.9419,15.85896 9.3399,16.48596 10.8849,16.48596 C12.4329,16.48596 13.8309,15.85896 14.8449,14.84496 C15.8589,13.83096 16.4859,12.42996 16.4859,10.88496 C16.4859,9.33996 15.8589,7.93896 14.8449,6.92796 C13.8309,5.91396 12.4329,5.28696 10.8849,5.28696 C9.3399,5.28696 7.9419,5.91396 6.9279,6.92796 M10.8849,6.57996 C9.6969,6.57996 8.6199,7.06296 7.8399,7.84296 C7.0629,8.61996 6.5799,9.69696 6.5799,10.88496 L6.5769,10.88496 C6.5769,12.07296 7.0629,13.14996 7.8399,13.92996 C8.6199,14.70996 9.6969,15.18996 10.8849,15.18996 C12.0729,15.18996 13.1499,14.70996 13.9299,13.92996 C14.7099,13.15296 15.1929,12.07596 15.1929,10.88496 C15.1929,9.69696 14.7099,8.61996 13.9299,7.84296 C13.1529,7.06296 12.0759,6.57996 10.8849,6.57996 M10.3899,26.97396 C9.5469,25.98696 8.6259,24.96696 7.6779,23.91696 C5.6349,21.65796 3.4719,19.25796 1.9839,17.14896 L1.9809,17.14596 C1.3299,16.20996 0.8349,15.21096 0.5019,14.15796 C0.1689,13.11396 0.0009,12.01896 0.0009,10.88496 C0.0009,7.87896 1.2189,5.15796 3.1899,3.18696 C5.1579,1.21896 7.8819,-0.00204 10.8849,-0.00204 C13.8909,-0.00204 16.6149,1.21896 18.5829,3.18696 C20.5539,5.15796 21.7719,7.87896 21.7719,10.88496 L21.7689,10.88496 C21.7689,12.01596 21.5979,13.12296 21.2649,14.17296 C20.9319,15.22596 20.4369,16.22796 19.7889,17.14896 C18.3009,19.25796 16.1349,21.65796 14.0919,23.91996 C13.1439,24.96996 12.2229,25.98996 11.3769,26.97696 C11.1429,27.24696 10.7379,27.27996 10.4679,27.04896 C10.4409,27.02496 10.4139,26.99796 10.3899,26.97396" id="Fill-1" fill="#79BC5E" mask="url(#mask-2)"></path>
                <path d="M10.8849,1.29396 C13.5339,1.29396 15.9339,2.36796 17.6679,4.10496 C19.4049,5.83896 20.4789,8.23896 20.4789,10.88496 L20.4789,10.88496 C20.4819,11.87196 20.3289,12.84996 20.0319,13.78296 C19.7379,14.71596 19.3029,15.59796 18.7329,16.40796 C17.2749,18.47196 15.1449,20.82996 13.1379,23.05296 C12.3489,23.92896 11.5749,24.78696 10.8849,25.57296 C10.1949,24.78396 9.4239,23.92896 8.6319,23.05296 C6.6279,20.82996 4.4979,18.47496 3.0429,16.41096 C2.4669,15.57996 2.0259,14.69496 1.7349,13.76796 C1.4439,12.84996 1.2939,11.88696 1.2939,10.88496 C1.2939,8.23896 2.3679,5.83896 4.1019,4.10496 C5.8389,2.36796 8.2359,1.29396 10.8849,1.29396 Z M10.8849,6.57996 C9.6969,6.57996 8.6199,7.06296 7.8399,7.84296 C7.0629,8.61996 6.5799,9.69696 6.5799,10.88496 L6.5769,10.88496 C6.5769,12.07296 7.0629,13.14996 7.8399,13.92996 C8.6199,14.70996 9.6969,15.18996 10.8849,15.18996 C12.0729,15.18996 13.1499,14.70996 13.9299,13.92996 C14.7099,13.15296 15.1929,12.07596 15.1929,10.88496 C15.1929,9.69696 14.7099,8.61996 13.9299,7.84296 C13.1529,7.06296 12.0759,6.57996 10.8849,6.57996 Z" id="Combined-Shape" fill="#79BC5E" mask="url(#mask-2)"></path>
            </g>
        </g>
    </g>
</svg>