<?xml version="1.0" encoding="UTF-8"?>
<svg width="280px" height="12px" viewBox="0 0 280 12" version="1.1" xmlns="http://www.w3.org/2000/svg" xmlns:xlink="http://www.w3.org/1999/xlink">
    <title>underline-1@1x</title>
    <defs>
        <polygon id="path-1" points="0.555175845 0.73 1.69520455 0.73 1.69520455 2.51305019 0.555175845 2.51305019"></polygon>
        <polygon id="path-3" points="0.312208079 0.73 2.94671818 0.73 2.94671818 2.4714 0.312208079 2.4714"></polygon>
        <polygon id="path-5" points="0.508539773 0.73 2.1108125 0.73 2.1108125 2.5012 0.508539773 2.5012"></polygon>
        <polygon id="path-7" points="0.497644318 0.73 2.09991705 0.73 2.09991705 2.34156414 0.497644318 2.34156414"></polygon>
        <polygon id="path-9" points="0.451039773 0.73 2.0533125 0.73 2.0533125 1.9286 0.451039773 1.9286"></polygon>
        <polygon id="path-11" points="0.602272727 0.9184 1.569725 0.9184 1.569725 2.9184 0.602272727 2.9184"></polygon>
        <polygon id="path-13" points="0.1688 0.851666667 1.7688 0.851666667 1.7688 2.29175671 0.1688 2.29175671"></polygon>
        <polygon id="path-15" points="0.233662094 0.851666667 1.83366209 0.851666667 1.83366209 2.38653333 0.233662094 2.38653333"></polygon>
    </defs>
    <g id="Anne-Archer-Visuals" stroke="none" stroke-width="1" fill="none" fill-rule="evenodd">
        <g id="HOME-Desktop" transform="translate(-862.000000, -401.000000)">
            <g id="Banner" transform="translate(133.000000, 232.000000)">
                <g id="Group-2" transform="translate(581.000000, 122.000000)">
                    <g id="underline-1" transform="translate(148.000000, 47.500000)">
                        <g id="Group-55" transform="translate(0.000000, 2.500000)">
                            <g id="Group-3" transform="translate(277.795455, 0.000000)">
                                <mask id="mask-2" fill="white">
                                    <use xlink:href="#path-1"></use>
                                </mask>
                                <g id="Clip-2"></g>
                                <path d="M1.63672159,1.5904 C1.77451705,1.4684 1.67036932,1.2164 1.26980114,1.2944 L1.01824432,1.7464 L1.63672159,1.5904 Z" id="Fill-1" fill="#B1CA08" mask="url(#mask-2)"></path>
                            </g>
                            <g id="Group-6" transform="translate(275.590909, 0.000000)">
                                <mask id="mask-4" fill="white">
                                    <use xlink:href="#path-3"></use>
                                </mask>
                                <g id="Clip-5"></g>
                                <path d="M1.05924091,0.9594 C0.600990909,1.1994 0.0818545455,1.6034 0.421536364,1.9834 C0.858956818,1.5374 0.985536364,1.7034 1.4534,1.1754 C1.85396818,1.0994 2.16961591,1.2694 2.11513864,1.4334 C2.24812727,1.3134 2.75124091,1.4894 2.94671818,1.2034 C2.39393409,0.8994 1.72578636,0.9294 1.05283182,1.2494 C0.895809091,1.1634 1.03200227,1.0414 1.05924091,0.9594" id="Fill-4" fill="#B1CA08" mask="url(#mask-4)"></path>
                            </g>
                            <path d="M237.121281,2.5224 L237.377644,2.5604 C237.307144,2.5364 237.220622,2.5244 237.121281,2.5224" id="Fill-7" fill="#B1CA08"></path>
                            <path d="M212.637432,3.4574 C212.823295,3.4394 212.898602,3.3934 212.906614,3.3534 C212.73517,3.3894 212.59417,3.4214 212.637432,3.4574" id="Fill-9" fill="#B1CA08"></path>
                            <path d="M208.436112,3.1586 C208.52584,3.1646 208.601147,3.1706 208.682862,3.1766 C208.586726,3.1406 208.492192,3.1226 208.436112,3.1586" id="Fill-11" fill="#B1CA08"></path>
                            <path d="M237.121281,2.5224 L236.45794,2.4184 C236.421087,2.5624 236.799224,2.5064 237.121281,2.5224" id="Fill-13" fill="#B1CA08"></path>
                            <path d="M271.286222,2.3434 C271.420813,2.3134 271.531369,2.2674 271.632313,2.2074 C271.520153,2.2334 271.412801,2.2554 271.302244,2.2734 C271.295835,2.2974 271.291028,2.3174 271.286222,2.3434" id="Fill-15" fill="#B1CA08"></path>
                            <g id="Group-19" transform="translate(246.750000, 0.000000)">
                                <mask id="mask-6" fill="white">
                                    <use xlink:href="#path-5"></use>
                                </mask>
                                <g id="Clip-18"></g>
                                <path d="M1.13342614,1.5992 L1.33210795,1.5872 C1.38658523,1.5352 1.43785795,1.4732 1.48592614,1.4032 L1.13342614,1.5992 Z" id="Fill-17" fill="#B1CA08" mask="url(#mask-6)"></path>
                            </g>
                            <g id="Group-22" transform="translate(254.761364, 0.000000)">
                                <mask id="mask-8" fill="white">
                                    <use xlink:href="#path-7"></use>
                                </mask>
                                <g id="Clip-21"></g>
                                <path d="M1.3917125,1.0756 C1.20424659,1.0696 1.16418977,1.4416 1.10330341,1.6076 C1.1978375,1.4496 1.33082614,1.3696 1.49425795,1.3316 C1.49265568,1.2616 1.4622125,1.1796 1.3917125,1.0756" id="Fill-20" fill="#B1CA08" mask="url(#mask-8)"></path>
                            </g>
                            <g id="Group-25" transform="translate(268.181818, 0.000000)">
                                <mask id="mask-10" fill="white">
                                    <use xlink:href="#path-9"></use>
                                </mask>
                                <g id="Clip-24"></g>
                                <path d="M1.13761364,0.9606 L1.36673864,0.8966 C1.30585227,0.9126 1.20651136,0.9406 1.13761364,0.9606" id="Fill-23" fill="#B1CA08" mask="url(#mask-10)"></path>
                            </g>
                            <path d="M241.954697,1.836 C241.937072,1.782 241.905026,1.736 241.871378,1.708 C241.874583,1.754 241.906628,1.796 241.954697,1.836" id="Fill-26" fill="#B1CA08"></path>
                            <path d="M10.1893114,6.0534 C10.1973227,6.0274 10.1893114,6.0114 10.1925159,5.9874 C10.1428455,6.0234 10.1252205,6.0494 10.1893114,6.0534" id="Fill-28" fill="#B1CA08"></path>
                            <g id="Group-32" transform="translate(0.000000, 2.000000)">
                                <mask id="mask-12" fill="white">
                                    <use xlink:href="#path-11"></use>
                                </mask>
                                <g id="Clip-31"></g>
                                <path d="M0.681264773,2.0304 L0.815855682,2.0124 C0.835082955,1.9444 0.852707955,1.8744 0.8559125,1.8064 L0.681264773,2.0304 Z" id="Fill-30" fill="#B1CA08" mask="url(#mask-12)"></path>
                            </g>
                            <path d="M200.768276,3.0056 C200.784299,3.0076 200.789106,3.0096 200.803526,3.0116 C201.002208,2.9616 200.890049,2.9736 200.768276,3.0056" id="Fill-33" fill="#B1CA08"></path>
                            <path d="M130.614047,4.3204 C131.402365,4.6544 129.308194,4.7404 130.495478,5.1124 C130.388126,4.9664 131.599444,4.5384 130.614047,4.3204" id="Fill-35" fill="#B1CA08"></path>
                            <path d="M271.067992,2.3078 C270.955833,2.3178 270.842072,2.3298 270.72831,2.3318 C270.883731,2.3358 270.987878,2.3278 271.067992,2.3078" id="Fill-37" fill="#B1CA08"></path>
                            <path d="M130.495959,5.1116 L130.495959,5.1156 L130.619334,5.1496 C130.568061,5.1336 130.53922,5.1256 130.495959,5.1116" id="Fill-39" fill="#B1CA08"></path>
                            <path d="M183.172117,3.8626 C183.208969,3.9266 183.281072,3.9746 183.354776,4.0186 C183.348367,3.9826 183.306708,3.9366 183.172117,3.8626" id="Fill-41" fill="#B1CA08"></path>
                            <path d="M196.30803,3.9346 L195.981166,3.8986 C196.11095,3.9266 196.2167,3.9346 196.30803,3.9346" id="Fill-43" fill="#B1CA08"></path>
                            <path d="M176.380564,4.5622 C176.204314,4.5362 176.143427,4.4862 175.903086,4.5402 C175.925518,4.5582 175.946348,4.5702 175.976791,4.5842 C176.063314,4.5322 176.178677,4.5062 176.380564,4.5622" id="Fill-45" fill="#B1CA08"></path>
                            <path d="M169.287623,4.6666 C169.326077,4.6946 169.375748,4.7146 169.419009,4.7386 C169.489509,4.7326 169.572827,4.7226 169.64493,4.7166 L169.287623,4.6666 Z" id="Fill-47" fill="#B1CA08"></path>
                            <path d="M31.7722455,6.2698 C31.6216318,6.1638 31.5303023,6.0458 31.4598023,5.9318 C31.5559386,6.1958 30.5096545,6.2718 31.7722455,6.2698" id="Fill-49" fill="#B1CA08"></path>
                            <path d="M271.265873,2.1364 C271.232225,2.2324 271.174543,2.2824 271.067191,2.3084 C271.148907,2.2964 271.225816,2.2844 271.301123,2.2744 C271.318748,2.2184 271.318748,2.1664 271.265873,2.1364" id="Fill-51" fill="#B1CA08"></path>
                            <path d="M82.7092966,6.965 L82.4465239,7.007 C82.547467,7.015 82.6403989,7.007 82.7092966,6.965" id="Fill-53" fill="#B1CA08"></path>
                        </g>
                        <path d="M31.002,8.003 L30.998,7.997 L31.002,8.003 Z" id="Fill-56" fill="#B1CA08"></path>
                        <g id="Group-63" transform="translate(23.000000, 3.500000)" fill="#B1CA08">
                            <path d="M21.4474108,3.26481431 C22.4320188,3.28147005 21.9308974,3.00609517 22.1528016,2.85286237 C23.3358009,2.78846017 22.6818448,3.05717277 23.0698097,3.19930174 C23.8104701,3.13600993 24.3938871,2.89394652 24.940565,2.91060226 C24.9787737,2.95612795 25.0845823,2.97278369 24.9552607,3.02719244 C25.7473558,2.82066127 27.261007,3.04162741 28.1853629,2.78179788 C28.2514933,2.8062263 28.2838237,2.82954433 28.2999889,2.84953122 C28.1633195,2.71295416 28.151563,2.57526671 28.1897716,2.47755304 C28.6321105,2.47755304 29.0230146,2.31654757 29.1743797,2.49420878 C28.9054494,2.4864361 28.8775277,2.55750059 28.7452669,2.61079896 L29.2155275,2.53862409 C29.6108403,2.79734324 28.576267,2.61968202 28.5601018,2.80733668 C29.4697621,2.73516181 30.5381353,2.53640332 31.2244218,2.61524049 C31.3493348,2.86507657 29.6005533,2.68186344 30.5058049,2.91171264 L29.4433099,2.8062263 C30.2324659,3.20596404 28.7952321,2.77180444 29.513849,3.19819136 C30.9158133,3.2848012 31.0995089,3.08826348 32.5,3.17487332 C32.8262469,3.03940664 32.4103602,2.96945254 32.738073,2.83509624 C34.7543152,2.60746781 34.2620112,3.47467663 35.7550884,3.15821758 C36.1474621,2.99721211 36.3194011,2.68408421 37.3525048,2.86063504 L36.9748268,3.1382307 C38.3371129,3.17931485 37.7845567,2.74293449 39.1982775,2.94502412 C38.9352255,3.05273124 38.1181478,3.02719244 38.3224172,3.06272468 C39.2320775,3.29368426 38.9895994,2.91060226 39.7008685,2.91726456 L39.8301901,3.16710064 C41.2850588,3.14267223 42.8971708,2.97944598 44.5092827,2.94835527 C44.4152306,3.02164052 44.1345439,3.09714654 44.5034045,3.17598371 C46.5416901,3.07049736 48.8327408,3.24593781 50.7784439,3.41138482 L51.5411477,3.20374327 C51.7145563,3.2081848 51.8571041,3.30367771 51.6645911,3.34365148 C52.4228863,3.43137171 51.7145563,3.2081848 52.0878256,3.12712687 C52.5228167,3.11602304 52.6521383,3.25593125 52.3714516,3.3170023 C53.7307985,3.14822414 56.2319969,2.96056948 57.6354307,3.20152251 L57.3532744,3.26259355 C58.4525085,3.35919684 58.6303257,2.83398586 59.6399164,3.04162741 L59.4415252,3.07827004 C61.8310367,3.19041868 64.4924176,3.01608861 66.2999816,3.35475531 C66.6673727,3.04940009 68.6615714,3.51242964 68.8437974,3.08271157 C70.1987356,3.30589847 69.8019533,3.38029411 71.7197346,3.53796844 C72.2340821,3.56128647 72.5044819,3.27480776 73.1437424,3.2337236 L73.1437424,3.45913127 L74.0240114,3.22928207 L74.4663502,3.50243619 L75.0659324,3.44802744 C74.8293326,3.43359247 74.5677502,3.34365148 74.6074284,3.27924929 C75.54648,3.18375638 76.8705574,3.45246898 76.8867226,3.56794877 L79.104295,3.3936187 C79.0484516,3.48355969 78.6781214,3.51131925 78.382739,3.56794877 C79.5745556,3.34587224 78.5811302,3.80668103 79.674486,3.60348101 C79.5319382,3.55129303 79.7597207,3.4702351 79.7876424,3.42470941 C80.3166856,3.56461762 81.5408326,3.57461106 82.4504929,3.52353346 L82.2682669,3.67787665 C83.9009528,3.72895425 85.7217429,3.6234679 87.5572287,3.63790287 C86.9047421,3.56128647 87.0708029,3.29368426 87.610133,3.27036623 L87.8114633,3.51020887 C88.1670978,3.36474875 87.2544984,3.41693673 87.9789936,3.24149628 C88.6638106,3.27258699 88.4242716,3.5146504 88.0260197,3.58904604 L88.8636713,3.51131925 C88.9106974,3.58349412 88.7123062,3.61902637 88.6564627,3.71007774 C89.006219,3.56350724 90.0819401,3.95658268 90.5904093,3.70341545 L90.6344962,3.77447993 C92.4685124,3.78669414 93.3061641,3.71007774 94.80365,3.70674659 C94.8433283,3.50132581 95.4252757,3.55018265 95.8808406,3.3869564 C96.975666,3.46024165 98.186587,3.62679905 99.5121339,3.61458484 C100.448246,3.51687117 99.7942903,3.44247553 100.218994,3.32144383 C100.277777,3.50909849 101.600385,3.49688428 100.90675,3.62901981 C102.498289,3.60459139 102.940627,3.60014986 104.958339,3.45691051 C104.743783,3.37918372 104.501305,3.34476186 104.630626,3.28147005 C104.996548,3.25260011 105.457991,3.36363837 105.399208,3.45357936 L105.302217,3.47134548 C107.571224,3.20041212 110.483901,4.04097176 112.298813,3.65566899 L112.197413,3.6745455 L114.071107,3.47578701 C114.926393,3.51020887 113.549412,3.61569522 114.179855,3.73228539 C116.203445,3.42470941 117.354114,3.78558376 119.01913,3.58127336 C120.277077,4.13535428 123.567431,3.55240341 125.283882,3.90883623 L125.188361,3.77781108 C125.640987,3.65233785 125.726221,3.8533171 126.055404,3.88329743 C126.012786,3.78225261 125.574856,3.76670725 125.855543,3.69564277 C129.648488,3.53796844 133.669216,3.88329743 137.551805,3.99877722 C138.971404,4.03319908 138.374761,3.32699574 140.158812,3.63013019 L139.644464,3.87330398 C142.520402,3.57350068 145.510965,3.86108978 148.322241,3.60459139 C148.154711,3.66122091 148.150302,3.73339578 147.875494,3.73339578 C148.466259,3.90661546 150.069553,3.73450616 150.07984,3.5912668 C150.51777,3.60570178 150.179771,3.72007118 150.448701,3.79113567 C151.043874,3.89218049 151.946187,3.55573456 152.260674,3.72784386 C152.313578,3.75560343 152.093143,3.78669414 151.984395,3.80112911 C152.37236,3.71229851 153.79196,3.80668103 153.421629,3.60792254 C154.475307,3.69453238 155.437871,3.50021543 156.279932,3.61236407 C156.828079,3.38140449 158.086026,3.70563621 158.257965,3.38362525 C158.184487,3.71562965 160.111086,3.63457172 160.775329,3.47356624 C160.553425,3.57461106 161.357276,3.57127991 161.097163,3.71229851 C161.856928,3.70230506 162.556441,3.62457828 162.419771,3.45802089 C163.834962,3.83110945 165.231048,3.09492578 166.040778,3.58904604 C168.298028,3.37030066 170.389218,3.22928207 172.412808,3.09936731 C172.356965,3.43026132 170.170253,3.182646 170.274592,3.52353346 C172.198252,3.35031378 173.288669,3.03829626 175.203511,3.07604927 C175.701693,3.11047113 174.931641,3.22484054 174.76852,3.28591158 C176.683362,3.10491922 178.490926,3.2337236 180.191212,3.01164708 C180.188273,3.04162741 180.006047,3.0804908 179.832638,3.10936075 C180.170638,3.09048424 180.620325,3.1382307 180.573299,2.98943943 L180.247055,3.03829626 C179.69303,2.83398586 181.554968,2.55194868 181.606402,2.43646889 C181.065603,2.87840117 183.305219,2.50309184 182.433767,3.06605583 C182.654202,3.03274435 182.926071,2.95501757 182.868758,2.85619351 C183.20088,2.87729078 183.309627,2.93280991 182.983384,3.054952 C184.186957,2.94391374 183.744618,2.79623285 184.840913,2.77291482 C184.842383,2.84508969 184.623418,2.87840117 184.51467,2.96612139 C185.059878,2.81177821 185.606556,2.65632464 186.535321,2.69518804 C186.482417,2.74071372 186.594103,2.79401209 186.317825,2.80067438 C187.906424,2.73960334 188.998311,2.35430057 190.750031,2.44535195 C190.262136,2.77291482 191.351083,2.53307217 191.464239,2.80289515 L192.395943,2.6974088 L192.009448,2.57526671 C192.830934,2.55861097 193.539264,2.34097598 194.252003,2.41204047 L193.652421,2.53973447 L195.185176,2.44757271 L194.306377,2.36762517 C195.124924,2.2055093 194.188812,2.02562732 195.288046,2.07226339 C195.06908,2.10557487 196.108062,2.0522765 196.548932,2.20106777 L196.545993,2.20217816 C196.945714,2.10446449 197.355722,2.0011989 197.968531,2.0522765 C198.131652,2.13444482 197.865661,2.35652134 197.974409,2.41204047 C198.355026,2.17330821 199.890721,2.2954503 200.375677,2.03895191 C200.212555,2.10002296 200.215495,2.24326231 200.274277,2.27102188 L200.594642,2.07670492 C200.979668,2.12556176 201.036981,2.15221094 200.985546,2.26880111 C202.131806,2.2699115 200.591703,1.93346557 201.961337,2.04450383 C201.856998,2.06226995 201.911372,2.08780875 201.690937,2.12223061 C203.060571,2.16331477 204.314109,1.92902403 205.573526,1.98454317 C205.967369,2.24770384 204.486048,2.08336722 204.928387,2.30211259 C206.730073,2.19884701 208.637567,1.86462184 210.390757,1.87794643 L210.063045,1.85684917 C210.267314,1.46266334 211.381244,2.00897158 212.248287,1.79910927 C212.03373,1.83464151 211.985235,2.02229617 212.038139,1.97788087 C213.241712,2.00341967 214.476146,1.80799233 216.276362,1.6314415 L216.061806,1.73803823 C216.776014,1.80577157 217.923744,1.73137593 218.689387,1.7524732 C218.905413,1.64587647 219.343343,1.64809723 219.062656,1.51263056 C221.469802,2.00341967 223.511027,1.06847751 225.641895,1.47043602 C225.393539,1.47931908 225.058478,1.57592236 225.25687,1.57037045 L227.020347,1.4204688 C226.861634,1.25724256 226.777869,1.32608628 226.389904,1.20727534 C226.60446,1.10067861 227.096764,1.00629609 227.536164,0.991861112 C226.749947,1.12954856 227.572903,1.26168409 227.927068,1.34496278 C227.863877,1.29499556 227.975563,1.23392452 227.940294,1.18284692 C228.899919,1.45155951 228.059329,0.838628312 229.346667,0.99963379 L229.287884,1.08957478 C229.756675,1.02961412 230.17991,0.89747859 230.694257,0.905251269 C230.926448,1.09290593 230.200484,1.01295838 230.185788,1.17507424 C230.901466,1.139542 231.559831,0.757570381 232.229952,0.929679686 C231.93163,0.99519226 231.4937,1.01073762 231.195379,1.07402943 C231.927222,1.27945021 232.00217,1.21837916 232.531213,1.23725567 L232.479778,1.23392452 L233.705395,1.29610595 L233.389438,1.24502835 C234.230029,0.706492781 235.207289,1.09068516 236.377062,0.715375842 C235.23815,1.07180866 236.203654,0.904140886 236.138993,1.12843817 C236.454949,1.17840539 236.932558,1.23170376 236.806175,1.29832671 C237.357262,1.09956823 237.777557,1.40492344 238.552017,1.11622396 C238.596104,1.18617807 239.164826,1.10178899 239.056078,1.28500212 C239.79233,1.20394419 238.866504,1.16730156 238.917939,1.07625019 C240.034808,0.794213008 241.64545,1.27611906 243.253154,0.884153999 C244.656587,0.696499338 244.890248,0.447773633 246.192282,0.280105859 C246.650786,0.377819529 245.860161,0.552149599 245.860161,0.552149599 C246.592004,0.630986764 247.128394,0.592123373 247.792638,0.485526642 C247.664785,0.553259981 247.811742,0.599896051 248.029237,0.67207092 C248.568567,0.634317912 248.35842,0.401137564 249.087324,0.478864346 C248.974167,0.562143042 248.833089,0.695388955 248.581794,0.784219564 C249.212237,0.695388955 249.827984,0.538825007 250.48194,0.449994398 C250.671514,0.567694955 250.105732,0.653194416 249.882358,0.742025025 C250.620079,0.658746329 251.7972,0.558811894 252,0.353391111 L251.515044,0.302313511 C251.785444,0.282326624 251.675226,0.464429372 251.479774,0.507734294 C250.862557,0.685395512 250.55101,0.474422816 250.506923,0.404468711 L250.972775,0.341176903 C250.434914,-0.0574504542 249.087324,0.478864346 248.135046,0.489968172 L248.49362,0.172398746 L247.550159,0.458877459 C247.334133,0.387812972 247.172481,0.223476346 247.635394,0.16129492 C246.937351,0.0369320676 247.047568,0.291209685 246.442108,0.145749563 C246.374508,0.121321146 246.40243,0.105775789 246.459743,0.0913408155 L245.805787,0.206820607 C245.92776,0.137976885 245.670587,-0.00415208891 246.083534,0.0258282415 C244.869674,-0.106307289 244.187796,0.322300398 243.710188,0.109106937 L243.808649,0.0868992851 C242.165676,0.247904764 243.674918,0.31452772 242.465467,0.619882938 L241.564624,0.101334259 L241.427955,0.328962694 C241.256016,0.326741929 240.916546,0.322300398 240.967981,0.231249024 C240.350764,0.406689477 241.087016,0.324521164 240.73579,0.481085112 C239.89079,0.307865424 238.481478,0.655415181 238.255165,0.306755042 C237.978887,0.486637025 239.056078,0.410020625 238.191974,0.558811894 C237.898061,0.185723337 237.186792,0.658746329 236.413801,0.509955059 C236.62248,0.305644659 237.346975,0.384481825 236.573984,0.234580172 C236.159567,0.583240312 235.10295,0.213482903 234.478385,0.297871981 C234.478385,0.564363807 233.11316,0.455546312 232.060952,0.578798781 C232.118265,0.487747407 230.04471,0.502182381 229.046876,0.438890572 L229.070389,0.393364885 C228.907267,0.666519007 227.882981,0.649863268 227.146729,0.729810816 C227.158486,0.567694955 227.284868,0.501071999 227.680181,0.415572538 L226.982138,0.440000955 C226.826364,0.531052329 226.613277,0.583240312 226.163591,0.628765999 L226.317895,0.423345216 C225.38913,0.464429372 224.472122,0.720927755 223.26414,0.625434851 C223.215645,0.814199894 224.267853,1.11511358 223.017254,1.27945021 C222.959941,1.18062616 222.89528,1.00962723 223.221523,0.957439251 C223.114245,0.97409499 222.843845,1.05404254 222.621941,1.01739991 L223.108367,0.831966016 C222.55581,0.774226121 222.839436,0.982978051 222.401506,0.980757286 C222.394158,0.836407547 222.067915,0.887485147 222.11935,0.772005355 C222.228098,0.754239234 222.504376,0.819751808 222.666028,0.757570381 C222.172254,0.747576938 221.569733,0.680953981 221.362524,0.577688399 C221.413959,0.658746329 221.381629,0.772005355 221.024524,0.801985686 C220.09576,0.84195946 220.689464,0.638759442 220.139847,0.582129929 C219.92529,0.68872666 219.3213,0.604337581 219.327178,0.819751808 C219.055308,0.827524486 218.995056,0.728700434 218.884839,0.673181303 C218.413109,0.784219564 216.640814,0.772005355 217.205127,0.982978051 L217.33151,0.99519226 C217.307996,0.998523408 217.281544,1.00185456 217.253623,1.00629609 L217.258031,1.00629609 L217.253623,1.00629609 C215.697354,1.26945676 213.966207,0.985198816 212.411408,1.12510703 L212.407,1.05293216 C211.481174,1.16286003 210.333444,1.1650808 209.680958,1.33941087 C209.40468,1.34718355 209.018184,1.22726223 209.126932,1.13732123 C208.418602,1.21282725 208.346594,1.29610595 207.303203,1.20727534 C208.010063,1.06070483 207.046029,1.10289937 208.030637,1.09401631 C207.097464,1.05848407 206.877029,0.949666573 205.899769,1.17507424 C206.221604,0.980757286 205.179683,0.962991164 204.744692,1.0307245 L205.405996,1.14398353 C204.912222,1.18617807 204.477231,1.18173654 204.036362,1.17951577 L204.252388,0.929679686 C202.328728,0.690947425 200.873859,1.5292863 199.38666,1.07513981 C198.900235,1.25835294 200.427112,1.16619118 199.996529,1.37716388 C199.1192,1.36828082 198.180148,1.04515948 197.908279,1.05182177 C196.700297,0.950776956 196.820801,1.43823492 195.561385,1.38049503 C195.728915,1.46266334 195.899384,1.68918139 194.97062,1.7968885 C194.094759,1.78800544 193.866977,1.46155296 194.413655,1.37827426 C194.622333,1.36494967 194.725202,1.39048847 194.719324,1.41935842 C195.000011,1.38049503 195.365932,1.33274857 195.013237,1.24946988 L194.905959,1.33830049 C194.46509,1.26168409 193.264456,1.30276824 193.534855,1.15286659 C192.880899,1.25280103 193.264456,1.30276824 193.75676,1.33496934 C192.626665,1.23836605 192.005039,1.37716388 190.845553,1.32275513 C191.033657,1.36606005 191.210005,1.46266334 191.027779,1.46710487 C189.327493,1.40381306 190.295936,1.650318 189.152615,1.71805134 C188.489841,1.60368193 189.361293,1.39715076 188.215033,1.53816936 C187.503764,1.46710487 188.048972,1.3116513 188.322311,1.23392452 C187.284799,1.42935186 186.350156,1.17507424 185.749104,1.15952889 L186.295782,1.07513981 C185.969539,1.12510703 185.697669,1.13065894 185.422861,1.13732123 L185.750574,1.30276824 C185.42433,1.28056059 185.148052,1.2861125 185.149522,1.21393763 C184.821809,1.33607972 185.4258,1.49597482 184.773313,1.66697374 C184.332444,1.58924696 183.459523,1.79355736 183.293462,1.56814969 C184.661626,1.61256499 183.125932,1.34052125 184.276601,1.27500868 C184.056166,1.30832016 183.785766,1.31387207 183.456584,1.29166442 C183.405149,1.267236 183.499201,1.24280758 183.587375,1.22726223 C182.269176,1.05404254 183.006897,1.50152673 181.653428,1.5292863 C181.81655,1.39604038 181.322776,1.29166442 181.105281,1.3249759 C181.64902,1.31387207 181.380089,1.53372783 180.887785,1.64587647 C180.013395,1.56592892 179.950203,1.74359014 179.496108,1.74247976 L180.016334,1.778012 C179.851743,1.91125791 179.415282,1.905706 178.81423,1.96011475 C178.755448,1.8612907 179.357969,1.87794643 179.139004,1.83908304 C178.483578,2.08225683 177.607718,1.63699341 176.680423,1.81243386 C176.242493,1.7335967 176.62311,1.56926007 176.239554,1.51929285 C175.202041,1.71027866 175.093293,1.36717043 173.999938,1.53039668 C174.327651,1.69806445 174.380555,1.65364915 173.614912,1.84130381 L175.419537,1.67807756 L174.273277,1.9567836 C174.819955,1.94679016 175.421006,1.82131692 175.750189,1.84352457 C175.203511,1.99786776 175.259354,1.95345245 175.529754,2.09225028 C174.764111,1.8479661 174.055781,2.27768417 173.178451,2.12112023 L173.179921,1.68918139 C171.8676,1.52484476 170.880053,1.96788743 169.190054,1.88238797 L169.735262,1.94901092 C169.517767,2.12445137 168.694811,1.99009508 168.152541,2.06782186 C168.196628,1.92347212 167.85275,1.87572567 167.616151,1.79022621 C167.648481,1.89682294 166.383186,1.80021965 166.240638,2.0911399 L165.480874,1.91347868 C164.118588,1.85684917 163.94077,2.34874866 162.628449,2.3209891 C163.019354,2.15776285 162.42271,2.0656011 163.295632,1.93901748 C162.859171,1.94456939 162.465328,1.9245825 162.460919,2.02451694 C162.205215,1.93901748 161.252937,2.23882078 160.848807,2.1033541 C160.665112,2.1677563 160.606329,2.31987871 160.115495,2.31210604 C160.061121,2.28323609 160.115495,2.24104155 160.115495,2.24104155 C160.115495,2.31210604 159.348382,2.34430713 159.780434,2.4997607 C158.425496,2.06226995 156.009532,2.56527327 154.833881,2.18996395 C153.878664,2.24659346 152.727995,2.30322297 151.860952,2.3209891 C151.916796,2.27768417 151.863891,2.24881423 152.028482,2.26213882 C150.832257,2.13777597 151.289292,2.68630497 149.929945,2.54084485 C149.23631,2.31099565 150.65297,2.41204047 150.219449,2.32543063 C150.035753,1.85129725 148.576476,2.39649511 147.663877,2.12334099 L147.88725,2.09447104 C147.187738,1.93568633 146.175208,2.28101532 145.031887,2.25103499 C145.031887,2.25103499 145.08773,2.20884045 145.039235,2.17886012 C144.253018,2.42425468 142.770228,2.50975414 141.666585,2.58192901 C142.013402,2.39427435 142.169176,2.48088419 141.963437,2.29322953 C141.469663,2.32209948 142.103045,2.59636398 141.115498,2.6529935 C140.798072,2.55194868 140.088273,2.46644922 139.998629,2.26435958 L140.928864,2.24992461 C140.457133,1.99120546 139.72529,2.26435958 139.235926,2.22105466 L139.303525,2.10668525 C137.879518,2.14887979 137.850126,2.43202736 136.32031,2.41315085 L136.476084,2.4997607 C135.632554,2.78401864 135.77951,2.3398656 134.93892,2.5508383 L134.694972,2.2632492 C134.142416,2.3332033 132.753678,2.54195524 131.761722,2.59747437 C132.330443,2.38317052 133.489929,2.27324264 134.210016,2.14554864 C133.664807,2.14443826 132.352486,2.1677563 132.062982,2.30988527 C132.283417,2.2821257 132.564104,2.21106122 132.78013,2.25547652 C132.101191,2.48310496 131.215044,2.59414322 130.124627,2.58970169 C130.336244,2.03117923 127.286898,2.44979348 126.512438,2.01563388 C124.577022,2.22327543 122.691571,1.92014097 120.444607,1.9501213 C121.222007,2.38650167 119.787712,1.96122513 119.906747,2.40759894 C119.383582,2.4353585 119.182252,2.42758583 119.136695,2.39871588 L117.562792,2.12778252 C117.192462,1.99675737 118.065383,2.03006885 118.021296,1.93013442 C116.876505,1.89349179 117.549566,1.74025899 116.795679,1.61922729 C116.944105,1.77912238 116.38714,1.84685572 115.737593,1.7846743 L116.647253,1.99342623 C115.036611,2.22660657 115.282028,1.61478576 113.65669,1.84685572 L114.173977,1.70694751 C113.340734,1.78911583 111.118752,1.69806445 110.289918,2.0522765 C110.147371,2.00008852 109.959266,1.87683605 110.325188,1.84574534 C108.348624,1.78356391 105.90033,2.20884045 104.373453,1.98121202 L104.529226,1.87239452 C104.158896,1.90237485 103.87674,2.07559454 103.419705,1.9634459 C103.444688,1.91792021 103.57401,1.8546284 103.40354,1.8479661 C103.205149,1.88460873 102.413054,2.03562077 101.925158,1.96899781 L102.351332,1.8479661 C100.429142,1.69695407 99.3725253,2.13444482 97.7486568,2.20328854 C97.7721699,1.88238797 96.2585187,1.76801856 95.5031626,1.71138904 L95.5325539,1.66697374 C93.2855902,1.61367537 91.6999303,1.91014753 89.6102099,2.02451694 C88.3375673,1.66808412 85.2411954,1.85240763 83.1764576,1.64476609 C83.4894748,1.70472675 83.1088576,1.89571256 82.7385275,1.9245825 C82.2550408,1.85573878 81.3777109,2.13777597 81.4732326,1.84352457 L81.6466412,1.85129725 C81.2968849,1.55926663 80.291703,1.62811035 79.5084252,1.61478576 L79.3555905,2.00008852 C77.3466962,1.42379995 73.9828636,2.1677563 72.8983252,1.6569803 C72.4001429,1.75025243 71.7873346,1.74470052 71.2920914,1.83797266 L71.3317697,1.63033111 C69.968014,1.56814969 69.2876058,1.53816936 67.5931982,1.57259122 L67.9488327,1.42824148 C66.9965551,1.40714421 66.7041118,2.0145235 65.8238428,2.01896503 L65.5798951,1.7080579 C63.9163484,1.69917483 62.2513321,1.41491689 60.5877853,1.68140871 C60.6186462,1.63588303 60.6730201,1.54705242 60.9434199,1.53705897 C60.1616117,1.522624 57.9308132,1.30276824 58.1850478,1.72915516 C58.1850478,1.4526699 56.4715358,1.68807101 55.5633451,1.80244042 L55.7176494,1.5992404 C54.9402499,1.85351802 54.9108586,1.92347212 53.8468941,1.98676393 C53.5985377,1.95789398 53.6396855,1.82131692 53.9688679,1.87683605 C53.1400337,1.76246664 53.3031553,2.06338033 52.2979733,1.94567977 L52.6844687,1.81909616 C51.8247736,1.79577812 51.8894345,1.86573223 51.4044783,2.01341311 C50.8563308,2.09002951 49.7747315,1.94679016 49.6615751,1.76135626 C49.5381317,1.87239452 49.0561146,2.01896503 48.552054,1.96011475 C48.4888628,1.89016064 48.676967,1.84907649 48.7710191,1.8290896 C47.3440722,1.67696718 46.6136988,2.04561421 45.6393777,1.83686228 C45.624682,1.76912894 45.5629603,1.73470708 45.4821343,1.71360981 C46.6239857,1.72915516 47.543933,1.74914205 47.4572287,1.76246664 C47.4704547,1.57481198 46.5505075,1.53372783 47.3029244,1.28167097 C46.5519771,1.41602727 45.2616997,1.71138904 44.3696741,1.61589614 C44.3270568,1.59701963 44.285909,1.57814313 44.2550481,1.54927318 L44.3491002,1.5292863 C44.1433612,1.50818903 43.955257,1.52484476 43.7789093,1.5548251 C43.4938138,1.52040323 43.3130574,1.49597482 43.0367794,1.49153329 C42.9427272,1.33496934 41.9845713,1.39715076 41.5260673,1.38493656 C41.5481108,1.59035734 40.9485285,1.55149395 41.5010847,1.7269344 C41.4276065,1.71138904 41.5892586,1.70361636 41.8963975,1.69806445 C41.965467,1.69251254 42.046293,1.69029177 42.0933191,1.67807756 L42.0595191,1.69584369 C42.3622494,1.69584369 42.7575621,1.6947333 43.2057792,1.69362292 C42.8339795,1.79466774 42.4474841,1.87905682 41.9463627,1.7591355 C41.7009454,1.88905026 41.4305456,2.02229617 41.2791805,2.0844776 C40.6722505,1.79133659 39.4686773,1.6247792 39.3129035,1.44711798 C37.8991827,1.5481628 35.996097,1.48931252 35.0849671,1.86684261 C34.680837,1.9123683 34.6323413,1.75136282 34.488324,1.68918139 C34.7219848,1.65253876 34.9953237,1.66142183 35.1246454,1.60701308 C34.3178546,1.69806445 32.7542382,1.62255843 32.542621,1.89016064 C31.5447868,1.75802511 33.1275075,1.64698685 31.7402389,1.67807756 L31.9342214,1.59701963 C29.2463883,1.139542 27.4535199,2.2377104 24.4805914,1.65364915 C24.6863304,1.69029177 24.7906695,1.70694751 24.8303477,1.7524732 C21.4077326,1.47265678 17.7191263,1.90459562 14.3567632,1.47931908 C13.3986073,1.39048847 13.2795726,1.56148739 12.6785208,1.68585024 L12.488947,1.46266334 L11.4617216,1.70583713 C10.01714,1.87461529 9.03400147,1.13510047 7.19557658,1.46599449 L7.41748078,1.6181169 C6.77087251,1.58147428 5.35274299,1.68140871 5.47618639,1.51152017 C5.40711687,1.53816936 5.2498735,1.66364259 5.0029867,1.58258466 L4.99269975,1.46710487 L3.38205732,1.64587647 C2.15203203,1.54705242 3.61424847,1.18950922 1.81256269,1.14509391 C1.13803269,1.18173654 -0.125792574,1.45711143 0.119624658,1.53816936 C0.390024482,1.54705242 0.804441604,1.6181169 0.814728554,1.73470708 L0.196042,1.78689506 C0.0549638306,2.12556176 -0.447627147,2.4675596 1.03810232,2.72405798 L2.10647554,2.52863064 L2.42977968,2.69851918 L1.54510199,2.6974088 C2.03446689,2.85952466 2.36217972,2.72516837 2.72663166,2.63522737 C2.803049,2.72405798 2.94559673,2.78734979 3.14986617,2.82288204 L4.209422,2.51086452 C4.32257845,2.64522082 3.72299623,2.76847329 4.40928274,2.8506416 C4.90452589,2.70629186 3.97135259,2.54639677 4.77961293,2.45756616 C5.26897783,2.61857164 5.11173446,2.74182411 5.71131667,2.61746125 C5.78773402,2.70629186 5.6569428,2.76070061 5.42034295,2.79623285 C5.95526434,2.6974088 6.81348987,2.76736291 7.09858534,2.59081207 C7.60705457,2.78734979 8.87381897,2.56194212 8.79593206,2.8828427 C8.96640151,2.80733668 9.74086188,2.64077929 10.222879,2.63300661 C9.31174912,3.00831593 12.0245647,2.67742191 11.7585736,3.0871531 C12.4375123,2.7484864 14.1245721,2.96056948 15.2943452,2.7806875 C15.2267453,2.80733668 15.095954,2.86174543 14.9960237,2.84286892 C15.642632,2.87951155 15.8233884,2.98610828 16.2348664,3.05606238 C16.3421445,2.77069405 17.3576134,2.71628531 17.9175174,2.54639677 C18.6919778,2.8317651 17.4075786,2.8761804 17.6353611,3.14489299 C17.6147872,2.91282303 19.0373254,2.92836838 18.7830908,2.73294104 C19.3782643,2.91060226 19.301847,2.82177165 19.5957598,3.0616143 C19.7309597,2.70518148 20.1674203,3.00831593 20.6891156,2.79401209 C21.5561585,2.97944598 20.8904459,3.1315684 21.8662366,3.03274435 C22.3173928,3.14711376 21.4474108,3.26481431 21.4474108,3.26481431 M44.662,1.99333333 L44.662,1.99866667 C44.527,2.00266667 44.412,2.00533333 44.338,2.00666667 C44.405,2.004 44.499,2 44.662,1.99333333 M46.7927552,2.09218079 C46.6327552,2.08018079 46.4337552,2.07484746 46.2217552,2.07351412 C46.1787552,1.98818079 46.2327552,1.90151412 46.3647552,1.90818079 C46.2907552,1.96284746 46.5987552,2.01751412 46.7927552,2.09218079 M42.3915,0.610067299 C42.6015,0.579400632 42.6695,0.628733965 42.6955,0.679400632 C42.5975,0.682067299 42.4825,0.688733965 42.3305,0.702067299 C42.3225,0.711400632 42.3125,0.723400632 42.3045,0.732733965 C42.3265,0.686067299 42.3515,0.642067299 42.3915,0.610067299" id="Fill-57"></path>
                            <path d="M22.7474814,2.51966667 C22.6977372,2.52766667 22.6704581,2.54166667 22.6078767,2.54366667 C22.6752721,2.57766667 22.7394581,2.60766667 22.8036442,2.63166667 C22.8453651,2.59166667 22.8886907,2.55366667 22.9272023,2.51766667 C22.8662256,2.51766667 22.8036442,2.51966667 22.7474814,2.51966667" id="Fill-59"></path>
                            <path d="M214.172577,1.23326667 L214.127647,1.22726667 C214.166158,1.23926667 214.20146,1.25326667 214.223926,1.27526667 C214.193437,1.25926667 214.193437,1.24726667 214.172577,1.23326667" id="Fill-61"></path>
                        </g>
                        <polygon id="Fill-64" fill="#B1CA08" points="79.883 9.0495 80.117 9.0705 80.117 8.9295"></polygon>
                        <g id="Group-93" transform="translate(212.000000, 0.500000)">
                            <path d="M36.95856,3.75363333 C36.98256,3.79096667 37.02736,3.82596667 37.11696,3.85396667 C37.10736,3.82596667 37.04016,3.79096667 36.95856,3.75363333" id="Fill-65" fill="#B1CA08"></path>
                            <path d="M41.97104,3.5273 L42.68784,3.63463333 C42.37744,3.56696667 42.15184,3.5413 41.97104,3.5273" id="Fill-67" fill="#B1CA08"></path>
                            <path d="M45.8344,3.4881 C45.8792,3.40876667 45.8888,3.35276667 45.9,3.2991 L45.892,3.29676667 L45.8344,3.4881 Z" id="Fill-69" fill="#B1CA08"></path>
                            <path d="M2.79216,5.55496667 C2.60176,5.64363333 2.41456,5.72996667 2.21456,5.79063333 C2.54096,5.80463333 2.79376,5.79996667 2.79216,5.55496667" id="Fill-71" fill="#B1CA08"></path>
                            <path d="M1.3672,5.82773333 C1.6952,5.8954 1.9656,5.86273333 2.2152,5.7904 C1.948,5.7764 1.6328,5.7484 1.3672,5.82773333" id="Fill-73" fill="#B1CA08"></path>
                            <path d="M62.536,2.52723333 L62.7232,2.5319 C62.7168,2.5039 62.7264,2.48056667 62.7392,2.4619 L62.536,2.52723333 Z" id="Fill-75" fill="#B1CA08"></path>
                            <path d="M62.73984,2.4612 L62.94144,2.39586667 C62.84704,2.40286667 62.76704,2.4122 62.73984,2.4612" id="Fill-77" fill="#B1CA08"></path>
                            <path d="M63.368,2.2554 L62.9424,2.3954 C63.0928,2.38606667 63.2784,2.38606667 63.368,2.2554" id="Fill-79" fill="#B1CA08"></path>
                            <path d="M57.42576,2.69196667 L57.37776,2.85296667 C57.40656,2.81796667 57.42576,2.76663333 57.42576,2.69196667" id="Fill-81" fill="#B1CA08"></path>
                            <path d="M55.87968,2.84596667 C56.25088,2.8553 56.82848,3.1143 57.33728,2.97896667 L57.37728,2.85296667 C57.15008,3.1003 56.21408,2.55896667 55.87968,2.84596667" id="Fill-83" fill="#B1CA08"></path>
                            <g id="Group-87" transform="translate(49.000000, 0.000000)">
                                <mask id="mask-14" fill="white">
                                    <use xlink:href="#path-13"></use>
                                </mask>
                                <g id="Clip-86"></g>
                                <path d="M0.2976,1.36033333 L1.6016,1.39766667 C1.3648,1.24833333 1.0528,1.043 1.64,0.963666667 C-0.024,0.578666667 2,1.31366667 0.2976,1.36033333" id="Fill-85" fill="#B1CA08" mask="url(#mask-14)"></path>
                            </g>
                            <g id="Group-90" transform="translate(44.200000, 0.000000)">
                                <mask id="mask-16" fill="white">
                                    <use xlink:href="#path-15"></use>
                                </mask>
                                <g id="Clip-89"></g>
                                <path d="M1.06176,1.38903333 C1.75296,1.26536667 1.03776,1.1487 1.06976,1.0507 C0.63616,1.2327 0.53216,1.27936667 1.06176,1.38903333" id="Fill-88" fill="#B1CA08" mask="url(#mask-16)"></path>
                            </g>
                            <path d="M16.18992,3.18266667 L16.24112,2.786 C15.70672,2.87233333 16.24272,2.94 16.18992,3.18266667" id="Fill-91" fill="#B1CA08"></path>
                        </g>
                        <polygon id="Fill-94" fill="#B1CA08" points="222.521 5.964 223.189 6.24 223.479 5.76"></polygon>
                        <polygon id="Fill-95" fill="#B1CA08" points="218.445 5.123 219.265 4.967 219.555 4.877"></polygon>
                        <g id="Group-100" transform="translate(148.000000, 4.500000)" fill="#B1CA08">
                            <path d="M22.50544,1.111575 L22.66864,1.575075 C23.03344,1.485075 23.10704,0.960825 22.50544,1.111575" id="Fill-96"></path>
                            <path d="M1.41408,1.77195 C1.18688,1.53795 0.59648,1.38945 0.22688,1.61895 C0.70048,1.65045 1.17088,1.8327 1.41408,1.77195" id="Fill-98"></path>
                        </g>
                        <polygon id="Fill-101" fill="#B1CA08" points="85.498 6.06 85.966 6.099 86.502 5.901"></polygon>
                    </g>
                </g>
            </g>
        </g>
    </g>
</svg>